<svg width="61" height="78" viewBox="0 0 61 78" fill="none" xmlns="http://www.w3.org/2000/svg">
<g filter="url(#filter0_di_1_806)">
<mask id="path-1-outside-1_1_806" maskUnits="userSpaceOnUse" x="3.79041" y="0.0539551" width="54" height="70" fill="black">
<rect fill="white" x="3.79041" y="0.0539551" width="54" height="70"/>
<path d="M7.15041 69.054V60.702L33.8384 35.358C36.0784 33.246 37.7424 31.39 38.8304 29.79C39.9184 28.19 40.6224 26.718 40.9424 25.374C41.3264 23.966 41.5184 22.654 41.5184 21.438C41.5184 18.366 40.4624 15.998 38.3504 14.334C36.2384 12.606 33.1344 11.742 29.0384 11.742C25.7744 11.742 22.7984 12.318 20.1104 13.4699C17.4864 14.622 15.2144 16.382 13.2944 18.75L4.55841 12.03C7.18241 8.50995 10.7024 5.78995 15.1184 3.86995C19.5984 1.88595 24.5904 0.893951 30.0944 0.893951C34.9584 0.893951 39.1824 1.69395 42.7664 3.29395C46.4144 4.82995 49.1984 7.03795 51.1184 9.91795C53.1024 12.798 54.0944 16.222 54.0944 20.19C54.0944 22.366 53.8064 24.542 53.2304 26.718C52.6544 28.83 51.5664 31.07 49.9664 33.438C48.3664 35.806 46.0304 38.462 42.9584 41.406L20.0144 63.198L17.4224 58.494H56.6864V69.054H7.15041Z"/>
</mask>
<path d="M7.15041 69.054V60.702L33.8384 35.358C36.0784 33.246 37.7424 31.39 38.8304 29.79C39.9184 28.19 40.6224 26.718 40.9424 25.374C41.3264 23.966 41.5184 22.654 41.5184 21.438C41.5184 18.366 40.4624 15.998 38.3504 14.334C36.2384 12.606 33.1344 11.742 29.0384 11.742C25.7744 11.742 22.7984 12.318 20.1104 13.4699C17.4864 14.622 15.2144 16.382 13.2944 18.75L4.55841 12.03C7.18241 8.50995 10.7024 5.78995 15.1184 3.86995C19.5984 1.88595 24.5904 0.893951 30.0944 0.893951C34.9584 0.893951 39.1824 1.69395 42.7664 3.29395C46.4144 4.82995 49.1984 7.03795 51.1184 9.91795C53.1024 12.798 54.0944 16.222 54.0944 20.19C54.0944 22.366 53.8064 24.542 53.2304 26.718C52.6544 28.83 51.5664 31.07 49.9664 33.438C48.3664 35.806 46.0304 38.462 42.9584 41.406L20.0144 63.198L17.4224 58.494H56.6864V69.054H7.15041Z" fill="#242A32"/>
<path d="M7.15041 69.054H6.65041V69.554H7.15041V69.054ZM7.15041 60.702L6.8061 60.3394L6.65041 60.4872V60.702H7.15041ZM33.8384 35.358L33.4954 34.9942L33.4941 34.9954L33.8384 35.358ZM38.8304 29.79L38.4169 29.5088L38.8304 29.79ZM40.9424 25.374L40.46 25.2424L40.4579 25.2502L40.456 25.2581L40.9424 25.374ZM38.3504 14.334L38.0337 14.721L38.041 14.7267L38.3504 14.334ZM20.1104 13.4699L19.9134 13.0104L19.9094 13.0121L20.1104 13.4699ZM13.2944 18.75L12.9896 19.1463L13.3758 19.4434L13.6828 19.0648L13.2944 18.75ZM4.55841 12.03L4.15753 11.7311L3.86318 12.126L4.25355 12.4263L4.55841 12.03ZM15.1184 3.86995L15.3178 4.3285L15.3209 4.32713L15.1184 3.86995ZM42.7664 3.29395L42.5625 3.75062L42.5724 3.75477L42.7664 3.29395ZM51.1184 9.91795L50.7023 10.1953L50.7067 10.2016L51.1184 9.91795ZM53.2304 26.718L53.7128 26.8495L53.7138 26.8459L53.2304 26.718ZM42.9584 41.406L43.3027 41.7685L43.3044 41.7669L42.9584 41.406ZM20.0144 63.198L19.5765 63.4393L19.8891 64.0066L20.3587 63.5605L20.0144 63.198ZM17.4224 58.494V57.994H16.576L16.9845 58.7353L17.4224 58.494ZM56.6864 58.494H57.1864V57.994H56.6864V58.494ZM56.6864 69.054V69.554H57.1864V69.054H56.6864ZM7.65041 69.054V60.702H6.65041V69.054H7.65041ZM7.49471 61.0645L34.1827 35.7205L33.4941 34.9954L6.8061 60.3394L7.49471 61.0645ZM34.1814 35.7217C36.4343 33.5976 38.1271 31.7134 39.2439 30.0711L38.4169 29.5088C37.3577 31.0665 35.7225 32.8943 33.4954 34.9942L34.1814 35.7217ZM39.2439 30.0711C40.3534 28.4395 41.0903 26.9114 41.4288 25.4898L40.456 25.2581C40.1545 26.5245 39.4834 27.9404 38.4169 29.5088L39.2439 30.0711ZM41.4248 25.5055C41.8182 24.0629 42.0184 22.7062 42.0184 21.438H41.0184C41.0184 22.6017 40.8346 23.869 40.46 25.2424L41.4248 25.5055ZM42.0184 21.438C42.0184 18.2375 40.9103 15.7143 38.6598 13.9412L38.041 14.7267C40.0145 16.2816 41.0184 18.4944 41.0184 21.438H42.0184ZM38.667 13.947C36.4305 12.1171 33.1943 11.242 29.0384 11.242V12.242C33.0745 12.242 36.0463 13.0948 38.0338 14.7209L38.667 13.947ZM29.0384 11.242C25.7146 11.242 22.6705 11.8288 19.9134 13.0104L20.3074 13.9295C22.9263 12.8071 25.8342 12.242 29.0384 12.242V11.242ZM19.9094 13.0121C17.2078 14.1982 14.8729 16.0092 12.906 18.4351L13.6828 19.0648C15.5559 16.7547 17.765 15.0457 20.3114 13.9278L19.9094 13.0121ZM13.5993 18.3536L4.86326 11.6336L4.25355 12.4263L12.9896 19.1463L13.5993 18.3536ZM4.95928 12.3288C7.52623 8.88531 10.9738 6.21718 15.3178 4.32849L14.919 3.41142C10.431 5.36272 6.83858 8.13459 4.15753 11.7311L4.95928 12.3288ZM15.3209 4.32713C19.7297 2.37466 24.6515 1.39395 30.0944 1.39395V0.393951C24.5293 0.393951 19.4671 1.39725 14.9159 3.41278L15.3209 4.32713ZM30.0944 1.39395C34.9045 1.39395 39.0561 2.18514 42.5626 3.75052L42.9702 2.83738C39.3087 1.20276 35.0123 0.393951 30.0944 0.393951V1.39395ZM42.5724 3.75477C46.1433 5.25833 48.8443 7.40818 50.7024 10.1953L51.5344 9.6406C49.5525 6.66772 46.6855 4.40157 42.9604 2.83313L42.5724 3.75477ZM50.7067 10.2016C52.6257 12.9873 53.5944 16.3091 53.5944 20.19H54.5944C54.5944 16.1348 53.5792 12.6086 51.5302 9.6343L50.7067 10.2016ZM53.5944 20.19C53.5944 22.3213 53.3124 24.4543 52.7471 26.59L53.7138 26.8459C54.3004 24.6296 54.5944 22.4106 54.5944 20.19H53.5944ZM52.748 26.5864C52.1901 28.6322 51.1303 30.8223 49.5521 33.158L50.3807 33.7179C52.0025 31.3176 53.1187 29.0277 53.7128 26.8495L52.748 26.5864ZM49.5521 33.158C47.979 35.4862 45.67 38.1148 42.6125 41.045L43.3044 41.7669C46.3908 38.8091 48.7538 36.1257 50.3807 33.7179L49.5521 33.158ZM42.6141 41.0434L19.6701 62.8354L20.3587 63.5605L43.3027 41.7685L42.6141 41.0434ZM20.4523 62.9566L17.8603 58.2527L16.9845 58.7353L19.5765 63.4393L20.4523 62.9566ZM17.4224 58.994H56.6864V57.994H17.4224V58.994ZM56.1864 58.494V69.054H57.1864V58.494H56.1864ZM56.6864 68.554H7.15041V69.554H56.6864V68.554Z" fill="#0296E5" mask="url(#path-1-outside-1_1_806)"/>
</g>
<defs>
<filter id="filter0_di_1_806" x="0.55835" y="0.894043" width="60.1281" height="76.1599" filterUnits="userSpaceOnUse" color-interpolation-filters="sRGB">
<feFlood flood-opacity="0" result="BackgroundImageFix"/>
<feColorMatrix in="SourceAlpha" type="matrix" values="0 0 0 0 0 0 0 0 0 0 0 0 0 0 0 0 0 0 127 0" result="hardAlpha"/>
<feOffset dy="4"/>
<feGaussianBlur stdDeviation="2"/>
<feComposite in2="hardAlpha" operator="out"/>
<feColorMatrix type="matrix" values="0 0 0 0 0 0 0 0 0 0 0 0 0 0 0 0 0 0 0.25 0"/>
<feBlend mode="normal" in2="BackgroundImageFix" result="effect1_dropShadow_1_806"/>
<feBlend mode="normal" in="SourceGraphic" in2="effect1_dropShadow_1_806" result="shape"/>
<feColorMatrix in="SourceAlpha" type="matrix" values="0 0 0 0 0 0 0 0 0 0 0 0 0 0 0 0 0 0 127 0" result="hardAlpha"/>
<feOffset dy="4"/>
<feGaussianBlur stdDeviation="2"/>
<feComposite in2="hardAlpha" operator="arithmetic" k2="-1" k3="1"/>
<feColorMatrix type="matrix" values="0 0 0 0 0 0 0 0 0 0 0 0 0 0 0 0 0 0 0.25 0"/>
<feBlend mode="normal" in2="shape" result="effect2_innerShadow_1_806"/>
</filter>
</defs>
</svg>
