<svg width="11" height="78" viewBox="0 0 11 78" fill="none" xmlns="http://www.w3.org/2000/svg">
<g filter="url(#filter0_di_1_804)">
<mask id="path-1-outside-1_1_804" maskUnits="userSpaceOnUse" x="3.5509" y="0.0539551" width="54" height="70" fill="black">
<rect fill="white" x="3.5509" y="0.0539551" width="54" height="70"/>
<path d="M29.8949 69.014C25.1589 69.014 20.5189 68.342 15.9749 66.998C11.4949 65.59 7.7189 63.67 4.6469 61.238L10.0229 51.542C12.4549 53.526 15.3989 55.126 18.8549 56.342C22.3109 57.558 25.9269 58.166 29.7029 58.166C34.1829 58.166 37.6709 57.27 40.1669 55.478C42.6629 53.622 43.9109 51.126 43.9109 47.99C43.9109 44.918 42.7589 42.486 40.4549 40.694C38.1509 38.902 34.4389 38.006 29.3189 38.006H23.1749V29.462L42.3749 6.61395L44.0069 11.318H7.9109V0.853951H53.7029V9.20595L34.5029 32.054L27.9749 28.214H31.7189C39.9749 28.214 46.1509 30.07 50.2469 33.782C54.4069 37.43 56.4869 42.134 56.4869 47.894C56.4869 51.67 55.5269 55.158 53.6069 58.358C51.6869 61.558 48.7429 64.15 44.7749 66.134C40.8709 68.054 35.9109 69.014 29.8949 69.014Z"/>
</mask>
<path d="M29.8949 69.014C25.1589 69.014 20.5189 68.342 15.9749 66.998C11.4949 65.59 7.7189 63.67 4.6469 61.238L10.0229 51.542C12.4549 53.526 15.3989 55.126 18.8549 56.342C22.3109 57.558 25.9269 58.166 29.7029 58.166C34.1829 58.166 37.6709 57.27 40.1669 55.478C42.6629 53.622 43.9109 51.126 43.9109 47.99C43.9109 44.918 42.7589 42.486 40.4549 40.694C38.1509 38.902 34.4389 38.006 29.3189 38.006H23.1749V29.462L42.3749 6.61395L44.0069 11.318H7.9109V0.853951H53.7029V9.20595L34.5029 32.054L27.9749 28.214H31.7189C39.9749 28.214 46.1509 30.07 50.2469 33.782C54.4069 37.43 56.4869 42.134 56.4869 47.894C56.4869 51.67 55.5269 55.158 53.6069 58.358C51.6869 61.558 48.7429 64.15 44.7749 66.134C40.8709 68.054 35.9109 69.014 29.8949 69.014Z" fill="#3A3F47"/>
<path d="M15.9749 66.998L15.825 67.475L15.8331 67.4774L15.9749 66.998ZM4.6469 61.238L4.20962 60.9955L4.00386 61.3666L4.33655 61.63L4.6469 61.238ZM10.0229 51.542L10.339 51.1545L9.8756 50.7765L9.58562 51.2995L10.0229 51.542ZM18.8549 56.342L19.0209 55.8703L18.8549 56.342ZM40.1669 55.478L40.4585 55.8842L40.4653 55.8792L40.1669 55.478ZM40.4549 40.694L40.7619 40.2993L40.4549 40.694ZM23.1749 38.006H22.6749V38.506H23.1749V38.006ZM23.1749 29.462L22.7921 29.1403L22.6749 29.2798V29.462H23.1749ZM42.3749 6.61395L42.8473 6.45006L42.5586 5.61811L41.9921 6.29228L42.3749 6.61395ZM44.0069 11.318V11.818H44.7096L44.4793 11.1541L44.0069 11.318ZM7.9109 11.318H7.4109V11.818H7.9109V11.318ZM7.9109 0.853951V0.353951H7.4109V0.853951H7.9109ZM53.7029 0.853951H54.2029V0.353951H53.7029V0.853951ZM53.7029 9.20595L54.0857 9.52762L54.2029 9.38814V9.20595H53.7029ZM34.5029 32.054L34.2494 32.4849L34.6137 32.6992L34.8857 32.3756L34.5029 32.054ZM27.9749 28.214V27.714H26.1388L27.7214 28.6449L27.9749 28.214ZM50.2469 33.782L49.9111 34.1525L49.9172 34.1579L50.2469 33.782ZM53.6069 58.358L54.0357 58.6152L53.6069 58.358ZM44.7749 66.134L44.9956 66.5826L44.9985 66.5812L44.7749 66.134ZM29.8949 68.514C25.2069 68.514 20.6147 67.8489 16.1167 66.5185L15.8331 67.4774C20.4231 68.835 25.1109 69.514 29.8949 69.514V68.514ZM16.1248 66.521C11.6918 65.1277 7.97295 63.2334 4.95725 60.8459L4.33655 61.63C7.46486 64.1066 11.298 66.0522 15.825 67.475L16.1248 66.521ZM5.08419 61.4804L10.4602 51.7844L9.58562 51.2995L4.20962 60.9955L5.08419 61.4804ZM9.70684 51.9294C12.1904 53.9555 15.1874 55.5816 18.689 56.8136L19.0209 55.8703C15.6104 54.6703 12.7194 53.0964 10.339 51.1545L9.70684 51.9294ZM18.689 56.8136C22.1999 58.0489 25.8721 58.666 29.7029 58.666V57.666C25.9817 57.666 22.4219 57.067 19.0209 55.8703L18.689 56.8136ZM29.7029 58.666C34.2417 58.666 37.8466 57.7593 40.4585 55.8841L39.8753 55.0718C37.4952 56.7806 34.1241 57.666 29.7029 57.666V58.666ZM40.4653 55.8792C43.0894 53.9279 44.4109 51.2825 44.4109 47.99H43.4109C43.4109 50.9694 42.2365 53.316 39.8686 55.0767L40.4653 55.8792ZM44.4109 47.99C44.4109 44.7731 43.1949 42.1916 40.7619 40.2993L40.1479 41.0886C42.3229 42.7803 43.4109 45.0629 43.4109 47.99H44.4109ZM40.7619 40.2993C38.3252 38.4041 34.4752 37.506 29.3189 37.506V38.506C34.4026 38.506 37.9766 39.3998 40.1479 41.0886L40.7619 40.2993ZM29.3189 37.506H23.1749V38.506H29.3189V37.506ZM23.6749 38.006V29.462H22.6749V38.006H23.6749ZM23.5577 29.7836L42.7577 6.93562L41.9921 6.29228L22.7921 29.1403L23.5577 29.7836ZM41.9025 6.77784L43.5345 11.4818L44.4793 11.1541L42.8473 6.45006L41.9025 6.77784ZM44.0069 10.818H7.9109V11.818H44.0069V10.818ZM8.4109 11.318V0.853951H7.4109V11.318H8.4109ZM7.9109 1.35395H53.7029V0.353951H7.9109V1.35395ZM53.2029 0.853951V9.20595H54.2029V0.853951H53.2029ZM53.3201 8.88428L34.1201 31.7323L34.8857 32.3756L54.0857 9.52762L53.3201 8.88428ZM34.7564 31.623L28.2284 27.783L27.7214 28.6449L34.2494 32.4849L34.7564 31.623ZM27.9749 28.714H31.7189V27.714H27.9749V28.714ZM31.7189 28.714C39.9106 28.714 45.9434 30.5567 49.9111 34.1524L50.5827 33.4115C46.3584 29.5832 40.0393 27.714 31.7189 27.714V28.714ZM49.9172 34.1579C53.964 37.7066 55.9869 42.2712 55.9869 47.894H56.9869C56.9869 41.9967 54.8498 37.1533 50.5766 33.406L49.9172 34.1579ZM55.9869 47.894C55.9869 51.5805 55.051 54.9794 53.1782 58.1007L54.0357 58.6152C56.0029 55.3365 56.9869 51.7594 56.9869 47.894H55.9869ZM53.1782 58.1007C51.3157 61.2049 48.4505 63.7371 44.5513 65.6867L44.9985 66.5812C49.0353 64.5628 52.0581 61.911 54.0357 58.6152L53.1782 58.1007ZM44.5542 65.6853C40.74 67.5611 35.862 68.514 29.8949 68.514V69.514C35.9598 69.514 41.0018 68.5468 44.9956 66.5826L44.5542 65.6853Z" fill="#0296E5" mask="url(#path-1-outside-1_1_804)"/>
</g>
<defs>
<filter id="filter0_di_1_804" x="0.646851" y="0.854004" width="59.8401" height="76.1599" filterUnits="userSpaceOnUse" color-interpolation-filters="sRGB">
<feFlood flood-opacity="0" result="BackgroundImageFix"/>
<feColorMatrix in="SourceAlpha" type="matrix" values="0 0 0 0 0 0 0 0 0 0 0 0 0 0 0 0 0 0 127 0" result="hardAlpha"/>
<feOffset dy="4"/>
<feGaussianBlur stdDeviation="2"/>
<feComposite in2="hardAlpha" operator="out"/>
<feColorMatrix type="matrix" values="0 0 0 0 0 0 0 0 0 0 0 0 0 0 0 0 0 0 0.25 0"/>
<feBlend mode="normal" in2="BackgroundImageFix" result="effect1_dropShadow_1_804"/>
<feBlend mode="normal" in="SourceGraphic" in2="effect1_dropShadow_1_804" result="shape"/>
<feColorMatrix in="SourceAlpha" type="matrix" values="0 0 0 0 0 0 0 0 0 0 0 0 0 0 0 0 0 0 127 0" result="hardAlpha"/>
<feOffset dy="4"/>
<feGaussianBlur stdDeviation="2"/>
<feComposite in2="hardAlpha" operator="arithmetic" k2="-1" k3="1"/>
<feColorMatrix type="matrix" values="0 0 0 0 0 0 0 0 0 0 0 0 0 0 0 0 0 0 0.25 0"/>
<feBlend mode="normal" in2="shape" result="effect2_innerShadow_1_804"/>
</filter>
</defs>
</svg>
