<svg width="17" height="22" viewBox="0 0 20 25" fill="none" xmlns="http://www.w3.org/2000/svg">
<path fill-rule="evenodd" clip-rule="evenodd" d="M8.19639 17.6316L2.82379 20.8811C2.39483 21.1272 1.86636 20.953 1.62988 20.4875V20.4875C1.56146 20.3433 1.52455 20.1834 1.52209 20.0206V5.62247C1.52209 2.87647 3.22176 1.77808 5.66762 1.77808H11.4133C13.7846 1.77808 15.5588 2.80325 15.5588 5.4394V20.0206C15.5588 20.2804 15.4654 20.5295 15.299 20.7132C15.1326 20.8969 14.907 21 14.6717 21C14.5216 20.9974 14.3741 20.9567 14.2406 20.8811L8.8348 17.6316C8.6356 17.5128 8.39559 17.5128 8.19639 17.6316Z" stroke="#67686D" stroke-width="2" stroke-linecap="round" stroke-linejoin="round"/>
</svg>
