<svg width="76" height="76" viewBox="0 0 76 76" fill="none" xmlns="http://www.w3.org/2000/svg">
<g clip-path="url(#clip0_1_337)">
<path d="M39.8979 27.8623C38.4499 27.8623 37.0125 28.1102 35.6482 28.5953L13.3977 36.5064L39.8979 46.5787L40.2656 46.2927V27.8702C40.143 27.8666 40.0205 27.8623 39.8979 27.8623Z" fill="#05858D"/>
<path d="M25.9305 32.0504L13.3977 36.5064L25.7888 41.216C23.0002 38.8448 23.0625 34.338 25.9305 32.0504Z" fill="#05858D"/>
<path d="M44.1476 28.5953C42.7833 28.1102 41.3459 27.8623 39.8979 27.8623V46.4303L66.3981 36.5064L44.1476 28.5953Z" fill="#0296E5"/>
<path d="M39.8979 45.9849L35.4168 51.2808C35.0454 51.7937 34.3798 51.9997 33.7835 51.7864L13.3977 44.4949V64.1288C13.3977 65.2927 14.1291 66.331 15.225 66.7231L36.3073 74.2637C37.4595 74.6758 38.6741 74.8866 39.8977 74.8866C40.0204 74.8866 40.143 74.8828 40.2654 74.8787V46.4316L39.8979 45.9849Z" fill="#0296E5"/>
<path d="M18.7031 65.6451V46.3924L13.3979 44.4948V64.1287C13.3979 65.2926 14.1293 66.3309 15.2252 66.7229L19.9967 68.4296C19.1933 67.7496 18.7031 66.7402 18.7031 65.6451Z" fill="#05858D"/>
<path d="M46.0123 51.9348C45.416 52.1482 44.7506 51.9421 44.379 51.4293L39.8979 45.9851V74.8865C41.1216 74.8865 42.3362 74.6759 43.4885 74.2637L64.5708 66.7231C65.6667 66.331 66.3981 65.2927 66.3981 64.1288V44.6433L46.0123 51.9348Z" fill="#0296E5"/>
<path d="M52.3957 4.42223C51.1638 3.7921 50.1575 2.78404 49.5302 1.5505C49.394 1.28257 49.1204 1.1123 48.8198 1.1123C48.519 1.1123 48.2456 1.28257 48.1093 1.5505C47.482 2.78404 46.4758 3.79195 45.2439 4.42223C44.9768 4.55879 44.8074 4.83178 44.8074 5.13177V5.15137C44.8074 5.4481 44.9716 5.72197 45.236 5.85691C46.4639 6.48318 47.4676 7.48455 48.0969 8.71067C48.232 8.97401 48.5054 9.13729 48.8014 9.13729H48.8385C49.1345 9.13729 49.4079 8.97401 49.543 8.71067C50.1722 7.48455 51.176 6.48318 52.4039 5.85691C52.6683 5.72212 52.8324 5.44825 52.8324 5.15137V5.13177C52.8321 4.83192 52.6628 4.55894 52.3957 4.42223Z" fill="#FFE02F"/>
<path d="M34.4297 7.7133C33.5077 7.24172 32.7547 6.48736 32.2852 5.56423C32.1832 5.36369 31.9785 5.23633 31.7535 5.23633C31.5284 5.23633 31.3237 5.36369 31.2218 5.56423C30.7523 6.48736 29.9992 7.24172 29.0773 7.7133C28.8775 7.81558 28.7507 8.01983 28.7507 8.24427V8.25896C28.7507 8.48102 28.8736 8.68602 29.0715 8.78695C29.9905 9.25557 30.7417 10.005 31.2126 10.9227C31.3137 11.1198 31.5183 11.242 31.7398 11.242H31.7676C31.989 11.242 32.1937 11.1198 32.2948 10.9227C32.7657 10.005 33.5169 9.25557 34.4359 8.78695C34.6338 8.68602 34.7567 8.48102 34.7567 8.25896V8.24427C34.7562 8.01983 34.6295 7.81558 34.4297 7.7133Z" fill="#FFEA7E"/>
<path d="M48.2418 5.85691C47.9774 5.72212 47.8132 5.44825 47.8132 5.15137V5.13177C47.8132 4.83178 47.9826 4.55879 48.2496 4.42223C49.0503 4.01268 49.7548 3.44267 50.3228 2.75569C50.0168 2.38563 49.7499 1.98231 49.5302 1.5505C49.394 1.28257 49.1204 1.1123 48.8198 1.1123C48.5192 1.1123 48.2456 1.28257 48.1094 1.5505C47.482 2.78404 46.4758 3.79195 45.2439 4.42223C44.9768 4.55879 44.8074 4.83178 44.8074 5.13177V5.15137C44.8074 5.4481 44.9716 5.72197 45.236 5.85691C46.4639 6.48318 47.4676 7.48455 48.0969 8.71067C48.232 8.97401 48.5054 9.13729 48.8014 9.13729H48.8385C49.1345 9.13729 49.4079 8.97401 49.543 8.71067C49.7602 8.28762 50.0228 7.89202 50.3229 7.52864C49.753 6.83899 49.0459 6.26705 48.2418 5.85691Z" fill="#FBC700"/>
<path d="M31.6691 8.78695C31.4712 8.68602 31.3484 8.48102 31.3484 8.25896V8.24427C31.3484 8.01983 31.4752 7.81543 31.675 7.7133C32.1959 7.44686 32.66 7.08764 33.0525 6.66133C32.7503 6.33298 32.4896 5.9659 32.2854 5.56423C32.1834 5.36369 31.9787 5.23633 31.7537 5.23633C31.5286 5.23633 31.3239 5.36369 31.222 5.56423C30.7525 6.48736 29.9994 7.24172 29.0775 7.7133C28.8777 7.81558 28.7509 8.01983 28.7509 8.24427V8.25896C28.7509 8.48102 28.8738 8.68602 29.0715 8.78695C29.9905 9.25557 30.7418 10.005 31.2126 10.9227C31.3137 11.1198 31.5184 11.242 31.7399 11.242H31.7676C31.9891 11.242 32.1938 11.1198 32.2949 10.9227C32.4976 10.5277 32.755 10.1662 33.0526 9.84249C32.6585 9.41425 32.1923 9.05384 31.6691 8.78695Z" fill="#FFE02F"/>
<path d="M70.3925 42.0212L66.3979 36.5065L39.8978 45.985L44.3789 52.1714C44.7504 52.6842 45.4159 52.8903 46.0122 52.677L69.7186 44.1978C70.6126 43.8782 70.9494 42.7899 70.3925 42.0212Z" fill="#0296E5"/>
<path d="M9.40334 42.0212L13.3979 36.5065L39.898 45.985L35.4169 52.1714C35.0454 52.6842 34.3799 52.8903 33.7836 52.677L10.0771 44.1978C9.1832 43.8782 8.84639 42.7899 9.40334 42.0212Z" fill="#0296E5"/>
<path d="M13.6921 43.5973L17.7108 38.0492L13.3977 36.5065L9.40336 42.0212C8.84642 42.79 9.18337 43.8782 10.0771 44.1979L13.7849 45.5241C13.3293 45.0053 13.2493 44.2088 13.6921 43.5973Z" fill="#05858D"/>
<path d="M12.5982 35.8535L8.60384 41.368C7.61122 42.7383 8.21003 44.6759 9.80443 45.246L12.3867 46.1696V64.1287C12.3867 65.7586 13.4178 67.2225 14.9525 67.7713L36.0346 75.3119C38.5556 76.2138 41.3581 76.2446 43.9655 75.3119L65.0477 67.7713C66.5824 67.2225 67.6135 65.7586 67.6135 64.1287V58.4463C67.6135 57.8313 67.1152 57.333 66.5002 57.333C65.8852 57.333 65.3869 57.8313 65.3869 58.4463V64.1287C65.3869 64.8204 64.9493 65.4418 64.2979 65.6749L43.2155 73.2155C42.5324 73.4598 41.8288 73.6247 41.1133 73.7085V49.4197L43.5795 52.8244C44.2325 53.7264 45.431 54.1042 46.4895 53.7253C47.6694 53.3032 64.8648 47.1529 65.387 46.966V53.2507C65.387 53.8657 65.8854 54.364 66.5004 54.364C67.1153 54.364 67.6137 53.8657 67.6137 53.2507V46.1696L70.1959 45.246C71.7891 44.6762 72.3897 42.7389 71.3962 41.3679L71.3964 41.368L67.402 35.8535C67.2881 35.696 67.0885 35.534 66.8732 35.4576L57.223 32.0265C56.6435 31.8201 56.007 32.123 55.8011 32.7025C55.595 33.2819 55.8977 33.9184 56.4771 34.1245L63.1857 36.5097L41.1132 44.4044V29.0289C42.0546 29.1196 42.9803 29.3255 43.8767 29.6444L51.5542 32.3742C52.1335 32.5805 52.7702 32.2777 52.9761 31.6982C53.1821 31.1188 52.8795 30.4823 52.3001 30.2763L44.6226 27.5465C41.7074 26.5098 38.4435 26.456 35.3771 27.5465L13.1268 35.4576C12.9146 35.5332 12.7176 35.6887 12.5982 35.8535ZM10.4069 42.6743L13.9113 37.8361L38.2278 46.5335C37.4026 47.6726 38.1221 46.6795 34.6171 51.5184C34.5365 51.6296 34.3894 51.6747 34.2606 51.6288C33.8464 51.4807 10.9872 43.3045 10.5542 43.1496C10.3587 43.0796 10.2851 42.8425 10.4069 42.6743ZM15.7021 65.6749C15.0508 65.442 14.6132 64.8204 14.6132 64.1287V46.966L33.5108 53.7253C34.5791 54.1075 35.7689 53.7171 36.4156 52.8309C36.4173 52.8287 36.4191 52.8268 36.4207 52.8245C36.4207 52.8244 36.4207 52.8244 36.4207 52.8244L38.8867 49.4197V73.7083C38.1712 73.6246 37.4675 73.4597 36.7844 73.2155L15.7021 65.6749ZM69.5931 42.6743C69.7148 42.8424 69.6412 43.0796 69.446 43.1496C69.2232 43.2293 45.9737 51.545 45.7396 51.6287C45.6108 51.675 45.4635 51.6297 45.3829 51.5184L41.7721 46.5335L66.0887 37.8361L69.5931 42.6743ZM36.1232 29.6444C37.0196 29.3257 37.9452 29.1198 38.8866 29.0289V44.4044C37.9318 44.0628 17.6743 36.8173 16.8142 36.5096L36.1232 29.6444Z" fill="#252836"/>
<path d="M41.1132 23.2002V9.2864C41.1132 8.67141 40.6149 8.1731 39.9999 8.1731C39.3849 8.1731 38.8866 8.67141 38.8866 9.2864V23.2C38.8866 23.815 39.3849 24.3133 39.9999 24.3133C40.6149 24.3133 41.1132 23.815 41.1132 23.2002Z" fill="#FF8700"/>
<path d="M54.7415 11.4147C54.4235 11.5538 46.9404 14.9262 45.7031 24.2024C45.6143 24.8685 46.1318 25.463 46.8081 25.463C47.3575 25.463 47.8356 25.0562 47.9103 24.4966C48.3566 21.1494 49.7817 18.2802 52.1457 15.9687C53.9222 14.2315 55.5983 13.4706 55.6358 13.4539C56.1975 13.2067 56.4536 12.5513 56.2076 11.9887C55.9614 11.4254 55.3054 11.1686 54.7415 11.4147Z" fill="#FF8700"/>
<path d="M52.4791 26.5806C52.1736 27.1142 52.3586 27.7944 52.8922 28.0997C53.4251 28.4049 54.1057 28.2207 54.4113 27.6866C56.9972 23.1693 60.8382 21.4058 63.6053 20.7221C64.2022 20.5745 64.5665 19.971 64.4189 19.3741C64.2714 18.7772 63.6677 18.4126 63.0709 18.5605C60.4603 19.2059 55.613 21.1056 52.4791 26.5806Z" fill="#FF8700"/>
<path d="M23.7923 11.9887C23.546 12.5521 23.803 13.2085 24.3663 13.4549C24.4327 13.4838 31.0166 16.4504 32.0897 24.4968C32.1712 25.1082 32.7332 25.5344 33.3404 25.4532C33.9499 25.3718 34.378 24.8119 34.2968 24.2024C33.0596 14.9262 25.5762 11.5536 25.2583 11.4147C24.695 11.1686 24.0389 11.4255 23.7923 11.9887Z" fill="#FF8700"/>
<path d="M15.581 19.3741C15.4336 19.971 15.7979 20.5746 16.3946 20.7221C19.1617 21.406 23.0029 23.1695 25.5886 27.6866C25.8942 28.2207 26.5748 28.4051 27.1077 28.0998C27.6413 27.7943 27.8263 27.1141 27.5208 26.5806C24.3871 21.1057 19.5395 19.2058 16.929 18.5605C16.3317 18.4128 15.7286 18.7776 15.581 19.3741Z" fill="#FF8700"/>
<path d="M60.377 11.3215C59.762 11.3215 59.2637 11.8198 59.2637 12.4348C59.2637 13.0498 59.762 13.5481 60.377 13.5481H61.1523V14.3234C61.1523 14.9384 61.6506 15.4367 62.2656 15.4367C62.8806 15.4367 63.3789 14.9384 63.3789 14.3234V13.5481H64.1542C64.7691 13.5481 65.2674 13.0498 65.2674 12.4348C65.2674 11.8198 64.7691 11.3215 64.1542 11.3215H63.3789V10.5464C63.3789 9.93141 62.8806 9.43311 62.2656 9.43311C61.6506 9.43311 61.1523 9.93141 61.1523 10.5464V11.3215H60.377Z" fill="#FF8700"/>
<path d="M15.5484 26.749H14.7731C14.1582 26.749 13.6599 27.2473 13.6599 27.8623C13.6599 28.4773 14.1582 28.9756 14.7731 28.9756H15.5484V29.7509C15.5484 30.3659 16.0467 30.8642 16.6617 30.8642C17.2767 30.8642 17.775 30.3659 17.775 29.7509V28.9756H18.5503C19.1652 28.9756 19.6636 28.4773 19.6636 27.8623C19.6636 27.2473 19.1652 26.749 18.5503 26.749H17.775V25.9738C17.775 25.3588 17.2767 24.8605 16.6617 24.8605C16.0467 24.8605 15.5484 25.3588 15.5484 25.9738V26.749Z" fill="#FF8700"/>
<path d="M53.0049 3.43129C51.9875 2.91071 51.1421 2.06356 50.6246 1.04586C49.9148 -0.348742 47.9288 -0.348594 47.219 1.04615C46.7016 2.06356 45.8561 2.91086 44.8389 3.43115C43.445 4.14396 43.4544 6.14612 44.8322 6.84869C45.8451 7.36526 46.6892 8.20707 47.2084 9.21913C47.915 10.5958 49.9287 10.5961 50.6355 9.21899C51.1547 8.20722 51.9987 7.36541 53.0118 6.84854C54.3891 6.14612 54.399 4.14455 53.0049 3.43129ZM48.9217 7.72493C48.2825 6.67516 47.3885 5.78111 46.3387 5.14177C47.3889 4.50259 48.2827 3.60942 48.9219 2.56039C49.5612 3.60942 50.4548 4.50259 51.5047 5.14177C50.4551 5.78111 49.561 6.67501 48.9217 7.72493Z" fill="#252836"/>
<path d="M30.3239 11.4313C30.9564 12.6633 32.7546 12.6652 33.3873 11.4313C33.7492 10.7259 34.3374 10.1391 35.0436 9.77897C36.2681 9.15463 36.2949 7.36533 35.0393 6.72243C35.0391 6.72228 35.039 6.72228 35.0388 6.72214C34.3297 6.3595 33.7406 5.76915 33.3797 5.0596C32.7451 3.81196 30.9665 3.81167 30.3315 5.05975C29.9708 5.769 29.3816 6.3595 28.6716 6.72258C27.4345 7.35627 27.4252 9.14542 28.6678 9.77897C29.3738 10.1389 29.962 10.7259 30.3239 11.4313ZM31.8555 6.82782C32.2474 7.37691 32.731 7.86038 33.2805 8.25196C32.7313 8.6437 32.2474 9.12746 31.8555 9.67699C31.4638 9.12776 30.98 8.6437 30.4306 8.25196C30.9802 7.86023 31.4639 7.37691 31.8555 6.82782Z" fill="#252836"/>
</g>
<defs>
<clipPath id="clip0_1_337">
<rect width="76" height="76" fill="white"/>
</clipPath>
</defs>
</svg>
